<?xml version="1.0" encoding="UTF-8" standalone="no"?>
<!DOCTYPE svg PUBLIC "-//W3C//DTD SVG 1.1//EN" "http://www.w3.org/Graphics/SVG/1.1/DTD/svg11.dtd">
<svg width="100%" height="100%" viewBox="0 0 57 57" version="1.1" xmlns="http://www.w3.org/2000/svg" xmlns:xlink="http://www.w3.org/1999/xlink" xml:space="preserve" xmlns:serif="http://www.serif.com/" style="fill-rule:evenodd;clip-rule:evenodd;stroke-linejoin:round;stroke-miterlimit:2;">
    <g transform="matrix(1,0,0,1,-1.13223,0.39038)">
        <path d="M18.976,44.294C14.797,41.601 11.715,37.347 10.557,32.36C12.045,31.411 13.033,29.745 13.033,27.85C13.033,25.973 12.064,24.321 10.601,23.368C11.796,18.44 14.873,14.245 19.025,11.586L22.423,17.47C19.055,19.742 16.839,23.592 16.839,27.956C16.839,32.299 19.034,36.133 22.374,38.409L18.976,44.294ZM21.007,10.475C23.568,9.231 26.442,8.532 29.479,8.532C31.479,8.532 33.408,8.835 35.225,9.398C35.737,11.814 37.882,13.629 40.447,13.629C41.077,13.629 41.681,13.519 42.242,13.319C46.034,16.629 48.53,21.387 48.864,26.727L42.059,26.727C41.441,20.327 36.04,15.316 29.479,15.316C27.678,15.316 25.964,15.694 24.412,16.374L21.007,10.475ZM48.875,28.998C48.591,34.345 46.141,39.122 42.387,42.465C41.786,42.23 41.132,42.101 40.447,42.101C37.814,42.101 35.623,44.013 35.187,46.526C33.382,47.081 31.465,47.38 29.479,47.38C26.421,47.38 23.528,46.672 20.954,45.411L24.359,39.514C25.924,40.21 27.657,40.596 29.479,40.596C36.104,40.596 41.545,35.488 42.076,28.998L48.875,28.998Z"/>
    </g>
    <g>
        <g transform="matrix(0.961658,0,0,0.962734,2.7871,1.65674)">
            <path d="M37.985,2.594C40.576,2.594 42.68,4.698 42.68,7.29C42.68,9.881 40.576,11.985 37.985,11.985C35.393,11.985 33.289,9.881 33.289,7.29C33.289,4.698 35.393,2.594 37.985,2.594Z"/>
        </g>
        <g transform="matrix(0.961658,0,0,0.962734,2.7871,40.8169)">
            <path d="M37.985,2.594C40.576,2.594 42.68,4.698 42.68,7.29C42.68,9.881 40.576,11.985 37.985,11.985C35.393,11.985 33.289,9.881 33.289,7.29C33.289,4.698 35.393,2.594 37.985,2.594Z"/>
        </g>
        <g transform="matrix(0.961658,0,0,0.962734,-29.9666,21.2217)">
            <path d="M37.985,2.594C40.576,2.594 42.68,4.698 42.68,7.29C42.68,9.881 40.576,11.985 37.985,11.985C35.393,11.985 33.289,9.881 33.289,7.29C33.289,4.698 35.393,2.594 37.985,2.594Z"/>
        </g>
    </g>
</svg>
