<?xml version="1.0" encoding="UTF-8" standalone="no"?>
<!DOCTYPE svg PUBLIC "-//W3C//DTD SVG 1.1//EN" "http://www.w3.org/Graphics/SVG/1.1/DTD/svg11.dtd">
<svg width="100%" height="100%" viewBox="0 0 57 57" version="1.1" xmlns="http://www.w3.org/2000/svg" xmlns:xlink="http://www.w3.org/1999/xlink" xml:space="preserve" xmlns:serif="http://www.serif.com/" style="fill-rule:evenodd;clip-rule:evenodd;stroke-linejoin:round;stroke-miterlimit:2;">
    <g transform="matrix(1.32916,0,0,1.32916,2.28034,-0.453959)">
        <path d="M19.945,13.092C20.593,13.092 21.65,12.84 23.117,12.337C24.584,11.833 25.857,11.582 26.936,11.582C28.705,11.582 30.28,12.056 31.661,13.006C32.438,13.552 33.207,14.293 33.97,15.228C32.819,16.206 31.977,17.076 31.445,17.838C30.481,19.219 30,20.744 30,22.413C30,24.239 30.51,25.886 31.532,27.353C32.553,28.82 33.718,29.748 35.027,30.137C34.48,31.906 33.574,33.754 32.308,35.682C30.395,38.573 28.497,40.018 26.612,40.018C25.864,40.018 24.832,39.781 23.516,39.306C22.2,38.832 21.089,38.594 20.183,38.594C19.277,38.594 18.223,38.842 17.022,39.339C15.821,39.835 14.846,40.083 14.098,40.083C11.84,40.083 9.625,38.17 7.453,34.344C5.281,30.561 4.195,26.85 4.195,23.211C4.195,19.831 5.026,17.076 6.687,14.947C8.349,12.819 10.445,11.754 12.976,11.754C14.055,11.754 15.361,11.977 16.892,12.423C18.424,12.869 19.442,13.092 19.945,13.092ZM26.699,4.181C26.699,5.102 26.483,6.109 26.051,7.202C25.62,8.295 24.937,9.309 24.002,10.244C23.196,11.035 22.398,11.567 21.607,11.84C21.103,11.999 20.341,12.121 19.32,12.207C19.348,10.021 19.92,8.129 21.035,6.533C22.15,4.936 23.994,3.843 26.569,3.253C26.627,3.44 26.663,3.606 26.677,3.75C26.691,3.893 26.699,4.037 26.699,4.181Z" style="fill-rule:nonzero;"/>
    </g>
</svg>
