<?xml version="1.0" encoding="UTF-8" standalone="no"?>
<svg
   width="768"
   height="768"
   viewBox="0 0 768 768"
   version="1.1"
   xml:space="preserve"
   style="clip-rule:evenodd;fill-rule:evenodd;stroke-linecap:round;stroke-linejoin:round;stroke-miterlimit:1.5"
   id="svg2"
   sodipodi:docname="Hex-logo.svg"
   inkscape:version="1.4 (e7c3feb1, 2024-10-09)"
   inkscape:export-filename="Hex-logo.png"
   inkscape:export-xdpi="96"
   inkscape:export-ydpi="96"
   xmlns:inkscape="http://www.inkscape.org/namespaces/inkscape"
   xmlns:sodipodi="http://sodipodi.sourceforge.net/DTD/sodipodi-0.dtd"
   xmlns="http://www.w3.org/2000/svg"
   xmlns:svg="http://www.w3.org/2000/svg"><defs
     id="defs2" /><sodipodi:namedview
     id="namedview2"
     pagecolor="#ffffff"
     bordercolor="#000000"
     borderopacity="0.25"
     inkscape:showpageshadow="2"
     inkscape:pageopacity="0.0"
     inkscape:pagecheckerboard="0"
     inkscape:deskcolor="#d1d1d1"
     inkscape:zoom="0.19300747"
     inkscape:cx="593.24129"
     inkscape:cy="132.11924"
     inkscape:window-width="1104"
     inkscape:window-height="654"
     inkscape:window-x="0"
     inkscape:window-y="38"
     inkscape:window-maximized="0"
     inkscape:current-layer="svg2" /><path
     d="m 46.266188,332.705 v -52.608 c 0,-8.931 4.765,-17.184 12.5,-21.65 L 338.96219,96.675 c 7.735,-4.465 17.265,-4.465 25,0 l 280.196,161.772 c 7.735,4.466 12.5,12.719 12.5,21.65 V 603.64 c 0,8.931 -4.765,17.185 -12.5,21.65 l -99.297,57.33 c -3.8,2.194 -8.112,3.349 -12.5,3.349 h -361.798 c -4.388,0 -8.699,-1.155 -12.5,-3.349 L 58.766188,625.29 c -7.735,-4.465 -12.5,-12.719 -12.5,-21.65 v -56.368 c 1.661,1.776 3.593,3.323 5.759,4.573 l 156.241002,90.207 c 7.735,4.465 17.265,4.465 25,0 l 156.242,-90.207 c 7.735,-4.465 12.5,-12.719 12.5,-21.65 V 349.783 c 0,-8.932 -4.765,-17.185 -12.5,-21.651 l -156.242,-90.206 c -7.735,-4.466 -17.265,-4.466 -25,0 L 52.025188,328.132 c -2.166,1.25 -4.098,2.797 -5.759,4.573 z"
     style="fill:#080605"
     id="path1" /><path
     d="m 671.53319,98.755 51.655,29.823 v 59.647 l -51.655,29.823 -51.656,-29.823 v -59.647 z"
     style="fill:#080605;stroke:#080605;stroke-width:50px"
     id="path2" /><rect
     x="31.392193"
     y="660.96899"
     width="640.14099"
     height="44.276001"
     style="fill:#080605"
     id="rect2" /></svg>
